<svg width="1903" height="1902" xmlns="http://www.w3.org/2000/svg" xmlns:xlink="http://www.w3.org/1999/xlink" xml:space="preserve" overflow="hidden"><defs><clipPath id="clip0"><rect x="983" y="334" width="1903" height="1902"/></clipPath><radialGradient cx="980901" cy="982287" r="1388185" fx="0" fy="0" gradientUnits="userSpaceOnUse" spreadMethod="pad" id="fill1" gradientTransform="matrix(0.000360892 0 0 0.000360892 1580.5 1243.5)"><stop offset="0" stop-color="#FFFFFF"/><stop offset="0.48" stop-color="#F2F2F2"/><stop offset="0.8" stop-color="#D9D9D9"/><stop offset="1" stop-color="#BFBFBF"/></radialGradient><radialGradient cx="1413163" cy="1413164" r="1998515" fx="0" fy="0" gradientUnits="userSpaceOnUse" spreadMethod="pad" id="fill2" gradientTransform="matrix(0.000360892 0 0 0.000360892 1424.5 617.5)"><stop offset="0" stop-color="#FFFFFF"/><stop offset="0.48" stop-color="#F2F2F2"/><stop offset="0.8" stop-color="#D9D9D9"/><stop offset="1" stop-color="#BFBFBF"/></radialGradient></defs><g clip-path="url(#clip0)" transform="translate(-983 -334)"><path d="M1948.78 403.448 1963.61 404.198 1053.88 1313.92 1053.14 1299.09C1053.14 804.44 1454.13 403.449 1948.78 403.448Z" fill="#F04452" fill-rule="evenodd"/><path d="M1962.45 404.139 2040.35 408.073C2130.68 417.246 2217.03 439.841 2297.4 473.833L2322.31 485.832 1135.52 1672.62 1123.52 1647.71C1089.53 1567.35 1066.93 1480.99 1057.76 1390.66L1053.83 1312.77Z" fill="#F07404" fill-rule="evenodd"/><path d="M2321.49 485.436 2375.69 511.547C2451.83 552.911 2521.31 604.996 2582.09 665.776L2582.38 666.093 1315.78 1932.69 1315.46 1932.4C1254.68 1871.62 1202.6 1802.15 1161.23 1726L1135.12 1671.8Z" fill="#EEB506" fill-rule="evenodd"/><path d="M2581.77 665.486 2582.09 665.776C2642.87 726.555 2694.95 796.03 2736.32 872.173L2762.43 926.376 1576.06 2112.74 1521.86 2086.63C1445.72 2045.27 1376.24 1993.18 1315.46 1932.4L1315.17 1932.08Z" fill="#0BBD33" fill-rule="evenodd"/><path d="M2762.03 925.554 2774.03 950.465C2808.02 1030.83 2830.62 1117.19 2839.79 1207.51L2843.72 1285.41 1935.1 2194.04 1857.2 2190.1C1766.87 2180.93 1680.52 2158.34 1600.15 2124.34L1575.24 2112.34Z" fill="#256DDB" fill-rule="evenodd"/><path d="M2843.67 1284.25 2844.42 1299.09C2844.42 1793.74 2443.42 2194.73 1948.78 2194.73L1933.94 2193.98Z" fill="#A330D6" fill-rule="evenodd"/><path d="M1035.5 1285C1035.5 788.772 1438 386.5 1934.5 386.5 2431 386.5 2833.5 788.772 2833.5 1285 2833.5 1781.23 2431 2183.5 1934.5 2183.5 1438 2183.5 1035.5 1781.23 1035.5 1285Z" stroke="#000000" stroke-width="105.417" stroke-miterlimit="8" fill="none" fill-rule="evenodd"/><path d="M1580.5 1598C1580.5 1402.21 1738.99 1243.5 1934.5 1243.5 2130.01 1243.5 2288.5 1402.21 2288.5 1598 2288.5 1793.78 2130.01 1952.5 1934.5 1952.5 1738.99 1952.5 1580.5 1793.78 1580.5 1598Z" stroke="#000000" stroke-width="105.417" stroke-miterlimit="8" fill="url(#fill1)" fill-rule="evenodd"/><path d="M1424.5 1127.5C1424.5 845.835 1652.83 617.5 1934.5 617.5 2216.17 617.5 2444.5 845.835 2444.5 1127.5 2444.5 1409.17 2216.17 1637.5 1934.5 1637.5 1652.83 1637.5 1424.5 1409.17 1424.5 1127.5Z" stroke="#000000" stroke-width="105.417" stroke-miterlimit="8" fill="url(#fill2)" fill-rule="evenodd"/></g></svg>