<svg width="2293" height="2293" xmlns="http://www.w3.org/2000/svg" xmlns:xlink="http://www.w3.org/1999/xlink" xml:space="preserve" overflow="hidden"><defs><clipPath id="clip0"><rect x="802" y="153" width="2293" height="2293"/></clipPath></defs><g clip-path="url(#clip0)" transform="translate(-802 -153)"><rect x="802" y="153" width="287" height="286" fill="#00E668"/><rect x="802" y="439" width="287" height="287" fill="#1DFF83"/><rect x="802" y="726" width="287" height="286" fill="#00E668"/><rect x="802" y="1012" width="287" height="287" fill="#1DFF83"/><rect x="802" y="1299" width="287" height="287" fill="#00E668"/><rect x="802" y="1586" width="287" height="286" fill="#1DFF83"/><rect x="802" y="1872" width="287" height="287" fill="#00E668"/><rect x="802" y="2159" width="287" height="287" fill="#1DFF83"/><rect x="1089" y="153" width="287" height="286" fill="#1DFF83"/><rect x="1089" y="439" width="287" height="287" fill="#00E668"/><rect x="1089" y="726" width="287" height="286" fill="#1DFF83"/><rect x="1089" y="1012" width="287" height="287" fill="#00E668"/><rect x="1089" y="1299" width="287" height="287" fill="#1DFF83"/><rect x="1089" y="1586" width="287" height="286" fill="#00E668"/><rect x="1089" y="1872" width="287" height="287" fill="#1DFF83"/><rect x="1089" y="2159" width="287" height="287" fill="#00E668"/><rect x="1376" y="153" width="286" height="286" fill="#00E668"/><rect x="1376" y="439" width="286" height="287" fill="#1DFF83"/><rect x="1376" y="726" width="286" height="286" fill="#00E668"/><rect x="1376" y="1012" width="286" height="287" fill="#1DFF83"/><rect x="1376" y="1299" width="286" height="287" fill="#00E668"/><rect x="1376" y="1586" width="286" height="286" fill="#1DFF83"/><rect x="1376" y="1872" width="286" height="287" fill="#00E668"/><rect x="1376" y="2159" width="286" height="287" fill="#1DFF83"/><rect x="1662" y="153" width="287" height="286" fill="#1DFF83"/><rect x="1662" y="439" width="287" height="287" fill="#00E668"/><rect x="1662" y="726" width="287" height="286" fill="#1DFF83"/><rect x="1662" y="1012" width="287" height="287" fill="#00E668"/><rect x="1662" y="1299" width="287" height="287" fill="#1DFF83"/><rect x="1662" y="1586" width="287" height="286" fill="#00E668"/><rect x="1662" y="1872" width="287" height="287" fill="#1DFF83"/><rect x="1662" y="2159" width="287" height="287" fill="#00E668"/><rect x="1949" y="153" width="286" height="286" fill="#00E668"/><rect x="1949" y="439" width="286" height="287" fill="#1DFF83"/><rect x="1949" y="726" width="286" height="286" fill="#00E668"/><rect x="1949" y="1012" width="286" height="287" fill="#1DFF83"/><rect x="1949" y="1299" width="286" height="287" fill="#00E668"/><rect x="1949" y="1586" width="286" height="286" fill="#1DFF83"/><rect x="1949" y="1872" width="286" height="287" fill="#00E668"/><rect x="1949" y="2159" width="286" height="287" fill="#1DFF83"/><rect x="2235" y="153" width="287" height="286" fill="#1DFF83"/><rect x="2235" y="439" width="287" height="287" fill="#00E668"/><rect x="2235" y="726" width="287" height="286" fill="#1DFF83"/><rect x="2235" y="1012" width="287" height="287" fill="#00E668"/><rect x="2235" y="1299" width="287" height="287" fill="#1DFF83"/><rect x="2235" y="1586" width="287" height="286" fill="#00E668"/><rect x="2235" y="1872" width="287" height="287" fill="#1DFF83"/><rect x="2235" y="2159" width="287" height="287" fill="#00E668"/><rect x="2522" y="153" width="287" height="286" fill="#00E668"/><rect x="2522" y="439" width="287" height="287" fill="#1DFF83"/><rect x="2522" y="726" width="287" height="286" fill="#00E668"/><rect x="2522" y="1012" width="287" height="287" fill="#1DFF83"/><rect x="2522" y="1299" width="287" height="287" fill="#00E668"/><rect x="2522" y="1586" width="287" height="286" fill="#1DFF83"/><rect x="2522" y="1872" width="287" height="287" fill="#00E668"/><rect x="2522" y="2159" width="287" height="287" fill="#1DFF83"/><rect x="2809" y="153" width="286" height="286" fill="#1DFF83"/><rect x="2809" y="439" width="286" height="287" fill="#00E668"/><rect x="2809" y="726" width="286" height="286" fill="#1DFF83"/><rect x="2809" y="1012" width="286" height="287" fill="#00E668"/><rect x="2809" y="1299" width="286" height="287" fill="#1DFF83"/><rect x="2809" y="1586" width="286" height="286" fill="#00E668"/><rect x="2809" y="1872" width="286" height="287" fill="#1DFF83"/><rect x="2809" y="2159" width="286" height="287" fill="#00E668"/></g></svg>