<svg width="1670" height="1672" xmlns="http://www.w3.org/2000/svg" xmlns:xlink="http://www.w3.org/1999/xlink" xml:space="preserve" overflow="hidden"><defs><clipPath id="clip0"><rect x="1114" y="460" width="1670" height="1672"/></clipPath><radialGradient cx="1367443" cy="1368829" r="1934837" fx="0" fy="0" gradientUnits="userSpaceOnUse" spreadMethod="pad" id="fill1" gradientTransform="matrix(0.000360892 0 0 0.000360892 1455 805)"><stop offset="0" stop-color="#FFFFFF"/><stop offset="0.48" stop-color="#F2F2F2"/><stop offset="0.8" stop-color="#D9D9D9"/><stop offset="1" stop-color="#BFBFBF"/></radialGradient></defs><g clip-path="url(#clip0)" transform="translate(-1114 -460)"><path d="M1947.5 460C2408.38 460 2782 833.842 2782 1295 2782 1296.64 2782 1298.28 2781.99 1299.91L1947.5 1295Z" fill="#00E668" fill-rule="evenodd"/><path d="M1950 2130C1489.27 2130 1115.6 1756.82 1115 1296.09L1950 1295Z" fill="#00E668" fill-rule="evenodd"/><path d="M2784 1297.5C2784 1757.96 2410.82 2131.4 1950.08 2132L1949 1297.5Z" fill="#1DFF83" fill-rule="evenodd"/><path d="M1114 1300C1114 839.266 1487.18 465.6 1947.91 465.001L1949 1300Z" fill="#1DFF83" fill-rule="evenodd"/><path d="M1455 1299C1455 1026.17 1675.95 805 1948.5 805 2221.05 805 2442 1026.17 2442 1299 2442 1571.83 2221.05 1793 1948.5 1793 1675.95 1793 1455 1571.83 1455 1299Z" stroke="#000000" stroke-width="123.75" stroke-miterlimit="8" fill="url(#fill1)" fill-rule="evenodd"/></g></svg>