<svg width="1086" height="1086" xmlns="http://www.w3.org/2000/svg" xmlns:xlink="http://www.w3.org/1999/xlink" xml:space="preserve" overflow="hidden"><defs><clipPath id="clip0"><rect x="468" y="1332" width="1086" height="1086"/></clipPath></defs><g clip-path="url(#clip0)" transform="translate(-468 -1332)"><path d="M468 1875C468 1575.11 711.109 1332 1011 1332 1310.89 1332 1554 1575.11 1554 1875 1554 2174.89 1310.89 2418 1011 2418 711.109 2418 468 2174.89 468 1875Z" fill="#0000FF" fill-rule="evenodd"/><path d="M590 1874.5C590 1642.26 778.488 1454 1011 1454 1243.51 1454 1432 1642.26 1432 1874.5 1432 2106.74 1243.51 2295 1011 2295 778.488 2295 590 2106.74 590 1874.5Z" fill="#FFFFFF" fill-rule="evenodd"/><path d="M713.968 1816.59 952.594 1816.59 952.594 1577.97 1068.41 1577.97 1068.41 1816.59 1307.03 1816.59 1307.03 1932.41 1068.41 1932.41 1068.41 2171.03 952.594 2171.03 952.594 1932.41 713.968 1932.41Z" fill="#0000FF" fill-rule="evenodd"/></g></svg>