<svg width="2045" height="2045" xmlns="http://www.w3.org/2000/svg" xmlns:xlink="http://www.w3.org/1999/xlink" xml:space="preserve" overflow="hidden"><defs><clipPath id="clip0"><rect x="926" y="277" width="2045" height="2045"/></clipPath></defs><g clip-path="url(#clip0)" transform="translate(-926 -277)"><rect x="926" y="277" width="511" height="511" fill="#07F356"/><rect x="1437" y="277" width="512" height="511" fill="#06DC4D"/><rect x="1949" y="277" width="511" height="511" fill="#07F356"/><rect x="2460" y="277" width="511" height="511" fill="#06DC4D"/><rect x="926" y="788" width="511" height="511" fill="#06DC4D"/><rect x="1437" y="788" width="512" height="511" fill="#07F356"/><rect x="1949" y="788" width="511" height="511" fill="#06DC4D"/><rect x="2460" y="788" width="511" height="511" fill="#07F356"/><rect x="926" y="1299" width="511" height="511" fill="#07F356"/><rect x="1437" y="1299" width="512" height="511" fill="#06DC4D"/><rect x="1949" y="1299" width="511" height="511" fill="#07F356"/><rect x="2460" y="1299" width="511" height="511" fill="#06DC4D"/><rect x="926" y="1810" width="511" height="512" fill="#06DC4D"/><rect x="1437" y="1810" width="512" height="512" fill="#07F356"/><rect x="1949" y="1810" width="511" height="512" fill="#06DC4D"/><rect x="2460" y="1810" width="511" height="512" fill="#07F356"/></g></svg>