<svg width="2293" height="2293" xmlns="http://www.w3.org/2000/svg" xmlns:xlink="http://www.w3.org/1999/xlink" xml:space="preserve" overflow="hidden"><defs><clipPath id="clip0"><rect x="802" y="131" width="2293" height="2293"/></clipPath></defs><g clip-path="url(#clip0)" transform="translate(-802 -131)"><rect x="802" y="418" width="287" height="287" fill="#1DA4FF"/><rect x="802" y="991" width="287" height="287" fill="#1DA4FF"/><rect x="802" y="1564" width="287" height="287" fill="#1DA4FF"/><rect x="802" y="2138" width="287" height="286" fill="#1DA4FF"/><rect x="1089" y="131" width="287" height="287" fill="#1DA4FF"/><rect x="1089" y="705" width="287" height="286" fill="#1DA4FF"/><rect x="1089" y="1278" width="287" height="286" fill="#1DA4FF"/><rect x="1089" y="1851" width="287" height="287" fill="#1DA4FF"/><rect x="1376" y="418" width="286" height="287" fill="#1DA4FF"/><rect x="1376" y="991" width="286" height="287" fill="#1DA4FF"/><rect x="1376" y="1564" width="286" height="287" fill="#1DA4FF"/><rect x="1376" y="2138" width="286" height="286" fill="#1DA4FF"/><rect x="1662" y="131" width="287" height="287" fill="#1DA4FF"/><rect x="1662" y="705" width="287" height="286" fill="#1DA4FF"/><rect x="1662" y="1278" width="287" height="286" fill="#1DA4FF"/><rect x="1662" y="1851" width="287" height="287" fill="#1DA4FF"/><rect x="1949" y="418" width="286" height="287" fill="#1DA4FF"/><rect x="1949" y="991" width="286" height="287" fill="#1DA4FF"/><rect x="1949" y="1564" width="286" height="287" fill="#1DA4FF"/><rect x="1949" y="2138" width="286" height="286" fill="#1DA4FF"/><rect x="2235" y="131" width="287" height="287" fill="#1DA4FF"/><rect x="2522" y="1564" width="287" height="287" fill="#1DA4FF"/><rect x="2235" y="705" width="287" height="286" fill="#1DA4FF"/><rect x="2235" y="1278" width="287" height="286" fill="#1DA4FF"/><rect x="2235" y="1851" width="287" height="287" fill="#1DA4FF"/><rect x="2522" y="418" width="287" height="287" fill="#1DA4FF"/><rect x="2522" y="991" width="287" height="287" fill="#1DA4FF"/><rect x="2522" y="2138" width="287" height="286" fill="#1DA4FF"/><rect x="2809" y="131" width="286" height="287" fill="#1DA4FF"/><rect x="2809" y="705" width="286" height="286" fill="#1DA4FF"/><rect x="2809" y="1278" width="286" height="286" fill="#1DA4FF"/><rect x="2809" y="1851" width="286" height="287" fill="#1DA4FF"/><rect x="802" y="131" width="287" height="287" fill="#1574FF"/><rect x="802" y="705" width="287" height="286" fill="#1574FF"/><rect x="802" y="1278" width="287" height="286" fill="#1574FF"/><rect x="802" y="1851" width="287" height="287" fill="#1574FF"/><rect x="1089" y="418" width="287" height="287" fill="#1574FF"/><rect x="1089" y="991" width="287" height="287" fill="#1574FF"/><rect x="1089" y="1564" width="287" height="287" fill="#1574FF"/><rect x="1089" y="2138" width="287" height="286" fill="#1574FF"/><rect x="1376" y="131" width="286" height="287" fill="#1574FF"/><rect x="1376" y="705" width="286" height="286" fill="#1574FF"/><rect x="1376" y="1278" width="286" height="286" fill="#1574FF"/><rect x="1376" y="1851" width="286" height="287" fill="#1574FF"/><rect x="1662" y="418" width="287" height="287" fill="#1574FF"/><rect x="1662" y="991" width="287" height="287" fill="#1574FF"/><rect x="1662" y="1564" width="287" height="287" fill="#1574FF"/><rect x="1662" y="2138" width="287" height="286" fill="#1574FF"/><rect x="1949" y="131" width="286" height="287" fill="#1574FF"/><rect x="1949" y="705" width="286" height="286" fill="#1574FF"/><rect x="1949" y="1278" width="286" height="286" fill="#1574FF"/><rect x="1949" y="1851" width="286" height="287" fill="#1574FF"/><rect x="2235" y="418" width="287" height="287" fill="#1574FF"/><rect x="2235" y="991" width="287" height="287" fill="#1574FF"/><rect x="2235" y="1564" width="287" height="287" fill="#1574FF"/><rect x="2235" y="2138" width="287" height="286" fill="#1574FF"/><rect x="2522" y="131" width="287" height="287" fill="#1574FF"/><rect x="2522" y="705" width="287" height="286" fill="#1574FF"/><rect x="2522" y="1278" width="287" height="286" fill="#1574FF"/><rect x="2522" y="1851" width="287" height="287" fill="#1574FF"/><rect x="2809" y="418" width="286" height="287" fill="#1574FF"/><rect x="2809" y="991" width="286" height="287" fill="#1574FF"/><rect x="2809" y="1564" width="286" height="287" fill="#1574FF"/><rect x="2809" y="2138" width="286" height="286" fill="#1574FF"/></g></svg>