<svg width="2094" height="2094" xmlns="http://www.w3.org/2000/svg" xmlns:xlink="http://www.w3.org/1999/xlink" xml:space="preserve" overflow="hidden"><defs><clipPath id="clip0"><rect x="902" y="252" width="2094" height="2094"/></clipPath></defs><g clip-path="url(#clip0)" transform="translate(-902 -252)"><rect x="902" y="252" width="2094" height="2094" fill="#1DFF83"/><path d="M2210.32 2340.37 2210.85 2346 2209.79 2346ZM1688.73 2340.37 1689.3 2346 1688.2 2346ZM1167.15 2340.37 1167.71 2346 1166.58 2346ZM2210.32 2340.37 2210.32 2340.37 2210.32 2340.37ZM1688.73 2340.37 1688.73 2340.37 1688.73 2340.37ZM2731.43 2339.67 2732.06 2346 2730.79 2346ZM1951.51 2078.42 1951.53 2078.42 1952.87 2105.02C1964.56 2220.65 2051.05 2314.05 2162.95 2335.6L2210.31 2340.09 2210.32 2340.37 2185.28 2341.64 2163.3 2346 1744.17 2346 1742.92 2345.61C1725.94 2342.12 1708.36 2340.28 1690.36 2340.28L1688.73 2340.37 1688.75 2340.1 1690.73 2340.28C1825.76 2340.28 1936.82 2237.16 1950.18 2105.02ZM1428.82 2078.36 1429.94 2078.42 1431.28 2105.02C1442.97 2220.65 1529.46 2314.05 1641.36 2335.6L1688.72 2340.09 1688.73 2340.37 1663.69 2341.64 1641.71 2346 1222.59 2346 1221.33 2345.61C1204.35 2342.12 1186.77 2340.28 1168.77 2340.28L1167.84 2340.33 1167.84 2340.28 1168.03 2340.28C1303.06 2340.28 1414.12 2237.17 1427.48 2105.02ZM905.982 2078.33 907.323 2105.02C919.788 2228.35 1017.37 2326.41 1140.11 2338.93L1165.1 2340.2 1165.1 2340.35 1139.74 2341.64 1117.75 2346 902.685 2346 902.685 2114.92 904.63 2105.02 905.971 2078.33ZM905.973 2078.3 905.971 2078.33 905.425 2078.36 905.425 2078.31 905.61 2078.32ZM905.977 2078.23 905.98 2078.3 905.973 2078.3ZM2993.1 2077.65 2994.23 2077.71 2995.56 2104.31 2996 2106.68 2996 2346 2789.13 2346 2785.61 2344.9C2768.63 2341.41 2751.06 2339.58 2733.05 2339.58L2732.13 2339.62 2732.13 2339.57 2732.31 2339.58C2867.34 2339.58 2978.4 2236.46 2991.76 2104.31ZM2470.26 2077.63 2471.6 2104.31C2484.07 2227.65 2581.65 2325.7 2704.39 2338.22L2729.39 2339.49 2729.39 2339.64 2704.02 2340.93 2678.47 2346 2263.34 2346 2252.47 2343.43C2239.27 2341.36 2225.73 2340.28 2211.95 2340.28L2210.32 2340.37 2210.35 2340.1 2212.32 2340.28C2330.47 2340.28 2430.27 2261.33 2462.32 2153.07L2466.97 2129.43 2466.97 2114.21 2468.91 2104.31 2470.25 2077.63ZM2470.25 2077.59 2470.25 2077.63 2469.71 2077.66 2469.71 2077.6 2469.89 2077.61ZM2470.26 2077.52 2470.26 2077.59 2470.25 2077.59ZM2996 2077.28 2996 2077.8 2994.23 2077.71 2994.22 2077.52 2993.52 2077.52ZM1689.12 1816.62 1690.45 1843.05C1703.81 1975.2 1814.87 2078.32 1949.9 2078.32 2084.93 2078.32 2195.99 1975.2 2209.35 1843.05L2210.67 1816.63 2210.71 1816.62 2212.04 1843.05C2224.5 1966.39 2322.08 2064.44 2444.82 2076.96L2469.82 2078.23 2469.82 2078.38 2444.45 2079.67C2329.38 2091.41 2236.43 2178.32 2214.99 2290.76L2210.35 2340.1 2210.31 2340.09 2208.98 2313.58C2196.51 2190.24 2098.93 2092.19 1976.19 2079.67L1951.53 2078.42 1951.52 2078.23 1951.51 2078.42 1949.53 2078.31C1814.5 2078.31 1703.44 2181.44 1690.08 2313.58L1688.75 2340.1 1688.72 2340.09 1687.39 2313.58C1674.92 2190.24 1577.34 2092.19 1454.6 2079.67L1429.94 2078.42 1429.93 2078.23 1429.24 2078.23 1477.68 2073.63C1589.58 2052.08 1676.07 1958.68 1687.76 1843.05L1689.09 1816.63ZM2210.69 1816.26 2210.7 1816.42 2210.68 1816.42ZM1689.1 1816.26 1689.11 1816.42 1689.1 1816.42ZM1950.78 1562.9 1950.78 1562.91 1950.78 1562.91ZM1429.19 1562.9 1429.2 1562.91 1429.19 1562.91ZM905.236 1562.9C905.236 1681.63 983.807 1781.91 1091.55 1814.12L1102.33 1816.26 1159.06 1816.26 1140.37 1817.21 1123.46 1820.45 1139.37 1823.61 1160.44 1824.68 1101.46 1824.68 1095.63 1825.8C994.56 1854.64 918.489 1943.2 907.582 2051.12L906.254 2077.54 906.217 2077.54 904.889 2051.12 902 2036.42 902 1816.26 902.685 1816.26 902.685 1588.33ZM2993.45 1562.47 2993.5 1562.48 2996 1589.03 2996 1815.55 2996 1823.97 2996 2044.56 2994.79 2051.1 2993.47 2077.52 2993.52 2077.52 2993.1 2077.56 2993.11 2077.52 2993.43 2077.52 2992.1 2051.1C2982.08 1951.99 2917.11 1869.21 2828.28 1834.01L2793.84 1823.97 2738.28 1823.97 2759.35 1822.9 2775.45 1819.9 2732.65 1815.84 2732.47 1815.85 2732.47 1815.81 2733.02 1815.84 2735.83 1815.55 2798.79 1815.55 2801.36 1815.07C2896.54 1789.03 2970.05 1710.19 2988.81 1611.81ZM2993.48 1562.2 2993.48 1562.2 2993.48 1562.2ZM2996 1562.08 2996 1562.72 2993.5 1562.48 2993.48 1562.2ZM2209.95 1300.94C2209.95 1436.62 2312.57 1548.22 2444.08 1561.64L2469.44 1562.93 2469.52 1562.2 2469.59 1562.93 2469.82 1562.95 2469.82 1563.02 2469.6 1563.03 2474.18 1611.81C2492.94 1710.19 2566.46 1789.03 2661.63 1815.07L2664.2 1815.55 2723.35 1815.55 2704.65 1816.5 2687.24 1819.84 2703.65 1822.9 2724.72 1823.97 2665.74 1823.97 2659.92 1825.09C2558.84 1853.93 2482.77 1942.49 2471.86 2050.41L2470.54 2076.83 2470.5 2076.83 2469.17 2050.41 2466.28 2035.71 2466.28 2027.82 2461.55 2003.76C2437.51 1922.56 2375.37 1857.85 2295.95 1830.57L2272.74 1824.68 2217.17 1824.68 2238.24 1823.61 2256.17 1820.47 2254.9 1820.15C2240.8 1817.78 2226.32 1816.54 2211.55 1816.54L2210.71 1816.62 2210.7 1816.42 2211.92 1816.54 2214.72 1816.26 2277.71 1816.26 2309.42 1805.89C2376.48 1778.6 2429.67 1724.1 2455.43 1656.01L2466.97 1616.09 2466.97 1587.63 2469.43 1563.04 2443.71 1564.35C2320.97 1576.87 2223.39 1674.92 2210.93 1798.26L2210.02 1816.35 2210.68 1816.42 2210.67 1816.63 2210 1816.69 2209.6 1824.68 2209.56 1824.68 2209.17 1816.77 2168.79 1820.6 2184.91 1823.61 2205.98 1824.68 2149.83 1824.68 2121.5 1832.58C2029.82 1866.47 1962.33 1950.63 1952.1 2051.81L1950.77 2078.23 1950.73 2078.23 1949.41 2051.81C1939.39 1952.7 1874.41 1869.92 1785.59 1834.72L1751.15 1824.68 1695.58 1824.68 1716.65 1823.61 1732.76 1820.61 1689.96 1816.54 1689.12 1816.62 1689.11 1816.42 1690.33 1816.54 1693.13 1816.26 1756.1 1816.26 1758.67 1815.78C1853.84 1789.74 1927.36 1710.9 1946.12 1612.51L1950.76 1563.18 1950.81 1563.18 1955.45 1612.51C1974.21 1710.9 2047.72 1789.74 2142.89 1815.78L2145.47 1816.26 2209.11 1816.26 2209.14 1816.26 2208.23 1798.26C2196.55 1682.63 2110.06 1589.23 1998.16 1567.68L1950.81 1563.18 1950.78 1562.91 1975.82 1561.64C2107.33 1548.22 2209.95 1436.62 2209.95 1300.94ZM1688.36 1300.94C1688.36 1445.67 1805.12 1562.99 1949.16 1562.99L1950.78 1562.91 1950.76 1563.18 1948.79 1562.99C1813.76 1562.99 1702.69 1666.11 1689.34 1798.26L1688.43 1816.35 1689.1 1816.42 1689.09 1816.63 1688.41 1816.69 1688.01 1824.68 1687.97 1824.68 1687.58 1816.77 1647.2 1820.6 1663.32 1823.61 1684.39 1824.68 1628.24 1824.68 1599.92 1832.58C1508.24 1866.47 1440.74 1950.63 1430.51 2051.81L1429.18 2078.23 1429.24 2078.23 1428.82 2078.27 1428.82 2078.23 1429.15 2078.23 1427.82 2051.81C1417.8 1952.7 1352.83 1869.92 1264 1834.72L1229.56 1824.68 1174 1824.68 1195.06 1823.61 1211.17 1820.61 1168.37 1816.54 1168.19 1816.55 1168.19 1816.51 1168.74 1816.54 1171.54 1816.26 1234.51 1816.26 1237.08 1815.78C1332.25 1789.74 1405.77 1710.9 1424.53 1612.51L1429.17 1563.18 1429.22 1563.18 1433.86 1612.51C1452.62 1710.9 1526.13 1789.74 1621.31 1815.78L1623.88 1816.26 1687.53 1816.26 1687.55 1816.26 1686.65 1798.26C1674.96 1682.63 1588.47 1589.23 1476.57 1567.68L1429.22 1563.18 1429.2 1562.91 1454.23 1561.64C1585.74 1548.22 1688.36 1436.62 1688.36 1300.94ZM1166.77 1300.94C1166.77 1445.67 1283.54 1562.99 1427.57 1562.99L1429.19 1562.91 1429.17 1563.18 1427.2 1562.99C1292.17 1562.99 1181.11 1666.11 1167.75 1798.26L1166.85 1816.26 1167.52 1816.26 1168.86 1843.05C1182.22 1975.2 1293.28 2078.32 1428.31 2078.32L1428.82 2078.27 1428.82 2078.36 1427.94 2078.31C1283.91 2078.31 1167.15 2195.64 1167.15 2340.37 1167.15 2195.64 1050.38 2078.31 906.351 2078.31L905.982 2078.33 905.98 2078.3 932.275 2076.96C1047.34 2065.22 1140.3 1978.31 1161.74 1865.87L1166.12 1819.32 1165.06 1798.26C1151.7 1666.11 1040.64 1562.99 905.61 1562.99L905.425 1563 905.425 1562.96 905.981 1562.99C1050.01 1562.99 1166.77 1445.67 1166.77 1300.94ZM1688.36 1300.93 1688.36 1300.93 1688.36 1300.94ZM2209.95 1300.93 2209.95 1300.94 2209.95 1300.93ZM2731.06 1300.23C2731.06 1444.96 2847.82 1562.29 2991.85 1562.29L2993.48 1562.2 2993.45 1562.47 2991.48 1562.29C2856.45 1562.29 2745.39 1665.41 2732.03 1797.55L2731.13 1815.55 2731.8 1815.55 2733.14 1842.35C2746.5 1974.49 2857.56 2077.61 2992.59 2077.61L2993.1 2077.56 2993.1 2077.65 2992.22 2077.61C2848.19 2077.61 2731.43 2194.94 2731.43 2339.67 2731.43 2194.94 2614.67 2077.61 2470.63 2077.61L2470.26 2077.63 2470.26 2077.59 2496.56 2076.26C2611.62 2064.51 2704.58 1977.6 2726.02 1865.16L2730.4 1818.62 2729.34 1797.55C2715.98 1665.41 2604.92 1562.29 2469.89 1562.29L2469.71 1562.3 2469.71 1562.26 2470.26 1562.29C2614.29 1562.29 2731.06 1444.96 2731.06 1300.23ZM1951.14 1038.98 1951.16 1038.98 1952.5 1065.58C1964.96 1188.92 2062.54 1286.97 2185.28 1299.49L2209.94 1300.75 2209.95 1300.93 2184.91 1302.2C2053.41 1315.62 1950.78 1427.22 1950.78 1562.9 1950.78 1418.17 1834.02 1300.85 1689.99 1300.85L1688.36 1300.93 1688.37 1300.75 1690.36 1300.85C1825.39 1300.85 1936.45 1197.73 1949.81 1065.58ZM1429.56 1038.98 1429.57 1038.98 1430.91 1065.58C1443.38 1188.92 1540.95 1286.97 1663.69 1299.49L1688.35 1300.75 1688.36 1300.93 1663.32 1302.2C1531.82 1315.62 1429.19 1427.22 1429.19 1562.9 1429.19 1418.17 1312.43 1300.85 1168.4 1300.85L1167.84 1300.87 1167.84 1300.8 1168.77 1300.85C1303.8 1300.85 1414.86 1197.73 1428.22 1065.58ZM905.617 1038.9 910.273 1088.4C931.714 1200.84 1024.67 1287.75 1139.74 1299.49L1165.1 1300.78 1165.1 1300.89 1139.37 1302.2C1007.86 1315.62 905.236 1427.22 905.236 1562.9L902.685 1537.48 902.685 1067.91 905.596 1038.9ZM905.425 1038.83 905.601 1038.84 905.596 1038.9 905.425 1038.91ZM1951.15 1038.79 1951.15 1038.8 1951.15 1038.8ZM1429.56 1038.79 1429.56 1038.8 1429.56 1038.8ZM905.606 1038.79 905.611 1038.84 905.601 1038.84ZM2993.84 1038.27 2993.86 1038.27 2995.19 1064.88 2996 1069.12 2996 1535.36 2993.48 1562.2C2993.48 1417.47 2876.71 1300.14 2732.68 1300.14L2732.13 1300.17 2732.13 1300.09 2733.05 1300.14C2868.08 1300.14 2979.14 1197.02 2992.5 1064.88ZM2469.71 1038.12 2469.88 1038.13 2469.88 1038.19 2469.71 1038.2ZM2993.85 1038.08 2993.85 1038.09 2993.85 1038.09ZM2469.89 1038.08 2469.89 1038.13 2469.88 1038.13ZM2996 1037.98 2996 1038.38 2993.86 1038.27 2993.85 1038.09ZM2210.32 776.821C2210.32 912.505 2312.94 1024.11 2444.45 1037.53L2469.81 1038.81 2469.88 1038.19 2469.9 1038.19 2474.55 1087.69C2496 1200.13 2588.95 1287.04 2704.02 1298.79L2729.39 1300.07 2729.39 1300.19 2703.65 1301.49C2572.14 1314.91 2469.52 1426.51 2469.52 1562.2L2466.97 1536.77 2466.97 1509.73 2454.28 1466.81C2416.14 1369.62 2321.85 1300.85 2211.58 1300.85L2209.95 1300.93 2209.97 1300.75 2211.95 1300.85C2322.22 1300.85 2416.51 1232.07 2454.65 1134.88L2466.97 1093.21 2466.97 1067.2 2469.8 1038.93 2444.08 1040.23C2329.01 1051.97 2236.06 1138.88 2214.62 1251.33L2209.97 1300.75 2209.94 1300.75 2208.61 1274.14C2196.14 1150.81 2098.56 1052.76 1975.82 1040.23L1951.16 1038.98 1951.15 1038.8 1976.19 1037.53C2107.7 1024.11 2210.32 912.505 2210.32 776.821ZM1688.73 776.821C1688.73 921.551 1805.5 1038.88 1949.53 1038.88L1951.15 1038.8 1951.14 1038.98 1949.16 1038.88C1814.13 1038.88 1703.06 1142 1689.71 1274.14L1688.37 1300.75 1688.35 1300.75 1687.02 1274.14C1674.55 1150.81 1576.97 1052.76 1454.23 1040.23L1429.57 1038.98 1429.56 1038.8 1454.6 1037.53C1586.11 1024.11 1688.73 912.505 1688.73 776.821ZM1167.15 776.821C1167.15 921.551 1283.91 1038.88 1427.94 1038.88L1429.56 1038.8 1429.56 1038.98 1427.57 1038.88C1283.54 1038.88 1166.77 1156.21 1166.77 1300.94 1166.77 1156.21 1050.01 1038.88 905.981 1038.88L905.617 1038.9 905.611 1038.84 906.351 1038.88C1050.38 1038.88 1167.15 921.551 1167.15 776.821ZM2210.32 776.815 2210.32 776.821 2210.32 776.815ZM1688.73 776.815 1688.73 776.821 1688.73 776.815ZM2731.43 776.114C2731.43 920.845 2848.19 1038.17 2992.22 1038.17L2993.85 1038.09 2993.84 1038.27 2991.85 1038.17C2847.82 1038.17 2731.06 1155.5 2731.06 1300.23 2731.06 1155.5 2614.29 1038.17 2470.26 1038.17L2469.9 1038.19 2469.89 1038.13 2470.63 1038.17C2614.67 1038.17 2731.43 920.845 2731.43 776.114ZM1951.51 514.865 1951.53 514.866 1952.87 541.469C1964.56 657.095 2051.05 750.5 2162.95 772.044L2210.31 776.542 2210.32 776.815 2185.28 778.085C2053.78 791.505 1951.15 903.105 1951.15 1038.79 1951.15 894.059 1834.39 776.733 1690.36 776.733L1688.73 776.815 1688.75 776.545 1690.73 776.733C1825.76 776.733 1936.82 673.613 1950.18 541.469ZM1428.82 514.809 1429.94 514.866 1431.28 541.469C1442.97 657.095 1529.46 750.5 1641.36 772.044L1688.72 776.542 1688.73 776.815 1663.69 778.085C1532.19 791.505 1429.56 903.105 1429.56 1038.79 1429.56 894.059 1312.8 776.733 1168.77 776.733L1167.84 776.78 1167.84 776.724 1168.03 776.733C1303.06 776.733 1414.12 673.614 1427.48 541.469ZM905.982 514.783 907.323 541.469C919.788 664.803 1017.37 762.854 1140.11 775.379L1165.1 776.648 1165.1 776.798 1139.74 778.085C1008.23 791.505 905.606 903.105 905.606 1038.79L902.685 1009.67 902.685 551.366 904.63 541.469 905.971 514.783ZM905.973 514.745 905.971 514.783 905.425 514.811 905.425 514.754 905.61 514.764ZM905.977 514.675 905.98 514.745 905.973 514.745ZM2993.1 514.102 2994.23 514.159 2995.56 540.763 2996 543.132 2996 1015.18 2993.85 1038.08C2993.85 893.353 2877.08 776.026 2733.05 776.026L2732.13 776.073 2732.13 776.017 2732.31 776.026C2867.34 776.026 2978.4 672.907 2991.76 540.763ZM2470.26 514.076 2471.6 540.762C2484.07 664.097 2581.65 762.147 2704.39 774.673L2729.39 775.941 2729.39 776.092 2704.02 777.379C2572.51 790.798 2469.89 902.398 2469.89 1038.08L2466.97 1008.96 2466.97 984.364 2454.65 942.7C2416.51 845.507 2322.22 776.733 2211.95 776.733L2210.32 776.815 2210.35 776.546 2212.32 776.733C2330.47 776.733 2430.27 697.782 2462.32 589.518L2466.97 565.883 2466.97 550.659 2468.91 540.762 2470.25 514.077ZM2470.25 514.039 2470.25 514.077 2469.71 514.104 2469.71 514.048 2469.89 514.057ZM2470.26 513.968 2470.26 514.038 2470.25 514.039ZM2996 513.733 2996 514.249 2994.23 514.159 2994.22 513.969 2993.52 513.969ZM1689.12 253.07 1690.45 279.5C1703.81 411.644 1814.87 514.764 1949.9 514.764 2084.93 514.764 2195.99 411.644 2209.35 279.5L2210.67 253.074 2210.71 253.07 2212.04 279.5C2224.5 402.834 2322.08 500.886 2444.82 513.411L2469.82 514.679 2469.82 514.83 2444.45 516.117C2329.38 527.859 2236.43 614.771 2214.99 727.213L2210.35 776.546 2210.31 776.542 2208.98 750.027C2196.51 626.693 2098.93 528.642 1976.19 516.117L1951.53 514.866 1951.52 514.675 1951.51 514.865 1949.53 514.763C1814.5 514.763 1703.44 617.883 1690.08 750.027L1688.75 776.545 1688.72 776.542 1687.39 750.027C1674.92 626.693 1577.34 528.642 1454.6 516.117L1429.94 514.866 1429.93 514.675 1429.24 514.675 1477.68 510.075C1589.58 488.531 1676.07 395.126 1687.76 279.5L1689.09 253.074ZM2210.69 252.707 2210.7 252.868 2210.68 252.866ZM1693.13 252.707 2209.11 252.707 2210.68 252.866 2210.67 253.074 2162.18 257.68C2050.28 279.224 1963.79 372.629 1952.1 488.254L1950.77 514.675 1950.73 514.675 1949.41 488.254C1936.05 356.111 1824.99 252.991 1689.96 252.991L1689.12 253.07 1689.11 252.868 1690.33 252.991ZM1689.1 252.707 1689.11 252.868 1689.1 252.866ZM1171.54 252.707 1687.53 252.707 1689.1 252.866 1689.09 253.074 1640.59 257.68C1528.69 279.224 1442.2 372.629 1430.51 488.254L1429.18 514.675 1429.24 514.675 1428.82 514.715 1428.82 514.675 1429.15 514.675 1427.82 488.254C1414.46 356.111 1303.4 252.991 1168.37 252.991L1168.19 253 1168.19 252.963 1168.74 252.991ZM1166.4 252.707 1167.52 252.707 1168.86 279.5C1182.22 411.644 1293.28 514.764 1428.31 514.764L1428.82 514.715 1428.82 514.809 1427.94 514.763C1283.91 514.763 1167.15 632.091 1167.15 776.821 1167.15 632.091 1050.38 514.763 906.351 514.763L905.982 514.783 905.98 514.745 932.275 513.411C1063.78 499.991 1166.4 388.391 1166.4 252.707ZM902 252.707 1159.06 252.707 1140.37 253.656C1017.62 266.181 920.047 364.232 907.582 487.566L906.254 513.987 906.217 513.987 904.889 487.566 902 472.867ZM2735.83 252 2996 252 2996 481.005 2994.79 487.547 2993.47 513.969 2993.52 513.969 2993.1 514.008 2993.11 513.969 2993.43 513.969 2992.1 487.547C2978.74 355.404 2867.68 252.284 2732.65 252.284L2732.47 252.294 2732.47 252.256 2733.02 252.284ZM2730.69 252 2731.8 252 2733.14 278.794C2746.5 410.938 2857.56 514.057 2992.59 514.057L2993.1 514.008 2993.1 514.102 2992.22 514.057C2848.19 514.057 2731.43 631.384 2731.43 776.114 2731.43 631.384 2614.67 514.057 2470.63 514.057L2470.26 514.076 2470.26 514.038 2496.56 512.704C2628.06 499.285 2730.69 387.685 2730.69 252ZM2466.28 252 2723.35 252 2704.65 252.949C2581.91 265.474 2484.33 363.525 2471.86 486.859L2470.54 513.281 2470.5 513.281 2469.17 486.859 2466.28 472.16 2466.28 464.27 2461.55 440.206C2429.5 331.942 2329.7 252.991 2211.55 252.991L2210.71 253.07 2210.7 252.868 2211.92 252.991 2214.72 252.707 2466.28 252.707Z" fill="#00E668" fill-rule="evenodd"/></g></svg>