<svg width="471" height="472" xmlns="http://www.w3.org/2000/svg" xmlns:xlink="http://www.w3.org/1999/xlink" xml:space="preserve" overflow="hidden"><defs><clipPath id="clip0"><rect x="3076" y="2033" width="471" height="472"/></clipPath></defs><g clip-path="url(#clip0)" transform="translate(-3076 -2033)"><path d="M3076 2269C3076 2138.66 3181.44 2033 3311.5 2033 3441.56 2033 3547 2138.66 3547 2269 3547 2399.34 3441.56 2505 3311.5 2505 3181.44 2505 3076 2399.34 3076 2269Z" fill-rule="evenodd"/><path d="M3225 2269C3225 2221.5 3263.5 2183 3311 2183 3358.5 2183 3397 2221.5 3397 2269 3397 2316.5 3358.5 2355 3311 2355 3263.5 2355 3225 2316.5 3225 2269Z" fill="#FF0000" fill-rule="evenodd"/></g></svg>