<svg width="472" height="472" xmlns="http://www.w3.org/2000/svg" xmlns:xlink="http://www.w3.org/1999/xlink" xml:space="preserve" overflow="hidden"><defs><clipPath id="clip0"><rect x="643" y="1737" width="472" height="472"/></clipPath></defs><g clip-path="url(#clip0)" transform="translate(-643 -1737)"><path d="M643 1973C643 1842.66 748.661 1737 879 1737 1009.34 1737 1115 1842.66 1115 1973 1115 2103.34 1009.34 2209 879 2209 748.661 2209 643 2103.34 643 1973Z" fill-rule="evenodd"/><path d="M793 1973C793 1925.5 831.504 1887 879 1887 926.496 1887 965 1925.5 965 1973 965 2020.5 926.496 2059 879 2059 831.504 2059 793 2020.5 793 1973Z" fill="#381DFF" fill-rule="evenodd"/></g></svg>