<svg width="1090" height="1090" xmlns="http://www.w3.org/2000/svg" xmlns:xlink="http://www.w3.org/1999/xlink" xml:space="preserve" overflow="hidden"><defs><clipPath id="clip0"><rect x="1677" y="537" width="1090" height="1090"/></clipPath></defs><g clip-path="url(#clip0)" transform="translate(-1677 -537)"><path d="M2301.94 568.24C2341.86 528.325 2406.58 528.325 2446.49 568.24L2735.58 857.327C2775.49 897.242 2775.49 961.958 2735.58 1001.87L2140.8 1596.65C2100.89 1636.57 2036.17 1636.57 1996.25 1596.65L1707.17 1307.56C1667.25 1267.65 1667.25 1202.93 1707.17 1163.02Z" fill="#FFFFFF" fill-rule="evenodd"/><path d="M2303.29 566.779C2342.27 527.797 2405.47 527.797 2444.46 566.779L2736.92 859.243C2775.9 898.226 2775.9 961.43 2736.92 1000.41 2624.25 1113.31 2386.45 1349.28 2273.78 1462.18L1840.83 1028.78C1956.02 913.577 2232.7 637.363 2303.29 566.779Z" fill="#FF4F4F" fill-rule="evenodd"/><path d="M2463.47 585.906 2726.37 848.808 2193.9 1381.28 1931 1118.38Z" fill="#FFD966" fill-rule="evenodd"/></g></svg>