<svg width="917" height="918" xmlns="http://www.w3.org/2000/svg" xmlns:xlink="http://www.w3.org/1999/xlink" xml:space="preserve" overflow="hidden"><defs><clipPath id="clip0"><rect x="1672" y="211" width="917" height="918"/></clipPath></defs><g clip-path="url(#clip0)" transform="translate(-1672 -211)"><rect x="1672" y="211" width="917" height="918" fill="#F63B00"/><path d="M2252.92 750.542C2171.19 750.542 2104.94 816.869 2104.94 898.688 2104.94 980.506 2171.19 1046.83 2252.92 1046.83 2334.65 1046.83 2400.91 980.506 2400.91 898.688 2400.91 816.869 2334.65 750.542 2252.92 750.542ZM2467.62 546.235C2424.63 546.235 2389.79 581.121 2389.79 624.154 2389.79 667.187 2424.63 702.073 2467.62 702.073 2510.61 702.073 2545.46 667.187 2545.46 624.154 2545.46 581.121 2510.61 546.235 2467.62 546.235ZM1914.21 546.235C1816.7 546.235 1737.66 625.364 1737.66 722.975 1737.66 820.586 1816.7 899.715 1914.21 899.715 2011.71 899.715 2090.75 820.586 2090.75 722.975 2090.75 625.364 2011.71 546.235 1914.21 546.235ZM2225.43 464.873C2162.22 464.873 2110.98 516.169 2110.98 579.445 2110.98 642.721 2162.22 694.017 2225.43 694.017 2288.64 694.017 2339.88 642.721 2339.88 579.445 2339.88 516.169 2288.64 464.873 2225.43 464.873ZM2442.07 304.852C2384.97 304.852 2338.69 351.189 2338.69 408.349 2338.69 465.508 2384.97 511.845 2442.07 511.845 2499.17 511.845 2545.46 465.508 2545.46 408.349 2545.46 351.189 2499.17 304.852 2442.07 304.852ZM1837.86 262.814C1786.91 262.814 1745.61 304.161 1745.61 355.165 1745.61 406.169 1786.91 447.516 1837.86 447.516 1888.81 447.516 1930.11 406.169 1930.11 355.165 1930.11 304.161 1888.81 262.814 1837.86 262.814ZM1932.98 211 1971.33 211 1965.29 222.132C1956.6 242.692 1951.8 265.298 1951.8 289.026 1951.8 383.941 2028.66 460.884 2123.47 460.884 2218.28 460.884 2295.14 383.941 2295.14 289.026 2295.14 265.298 2290.34 242.692 2281.65 222.132L2275.62 211 2328.02 211 2380.61 216.308C2499.54 240.67 2589 346.012 2589 472.272L2589 710.54 2583.04 711.141C2502.59 727.622 2442.07 798.881 2442.07 884.291 2442.07 937.672 2465.71 985.525 2503.08 1017.93L2526.77 1035.23 2512.56 1052.48 2502.9 1060.45 2473.59 1048.91C2459.49 1045.28 2444.7 1043.35 2429.47 1043.35 2368.53 1043.35 2314.8 1074.26 2283.07 1121.27L2278.88 1129 2047.52 1129 2053.44 1118.08C2059.02 1104.87 2062.11 1090.34 2062.11 1075.1 2062.11 1014.11 2012.72 964.666 1951.8 964.666 1890.88 964.666 1841.49 1014.11 1841.49 1075.1 1841.49 1082.72 1842.26 1090.16 1843.73 1097.35L1848.86 1113.9 1831.4 1108.47C1815.79 1101.86 1800.95 1093.77 1787.07 1084.38L1775.12 1074.51 1776.52 1071.61C1780.64 1058.34 1782.86 1044.24 1782.86 1029.62 1782.86 971.13 1747.34 920.948 1696.72 899.513L1674.51 892.61 1672 867.728 1672 635.479 1675.11 635.166C1727.26 624.482 1766.49 578.288 1766.49 522.921 1766.49 474.475 1736.46 433.052 1694.01 416.296L1679.66 412.028 1692.51 370.573C1725.53 292.427 1795.44 233.71 1880.39 216.308Z" fill="#FF5E1D" fill-rule="evenodd"/></g></svg>