<svg width="1294" height="1295" xmlns="http://www.w3.org/2000/svg" xmlns:xlink="http://www.w3.org/1999/xlink" xml:space="preserve" overflow="hidden"><defs><clipPath id="clip0"><rect x="1657" y="59" width="1294" height="1295"/></clipPath></defs><g clip-path="url(#clip0)" transform="translate(-1657 -59)"><rect x="1657" y="59.0001" width="1294" height="1295" fill="#F63B00"/><path d="M2740.89 1018.21C2678.62 1018.21 2628.14 1068.73 2628.14 1131.05 2628.14 1193.37 2678.62 1243.89 2740.89 1243.89 2803.16 1243.89 2853.64 1193.37 2853.64 1131.05 2853.64 1068.73 2803.16 1018.21 2740.89 1018.21ZM1915.03 929.247C1868.45 929.247 1830.68 967.042 1830.68 1013.66 1830.68 1060.28 1868.45 1098.08 1915.03 1098.08 1961.62 1098.08 1999.38 1060.28 1999.38 1013.66 1999.38 967.042 1961.62 929.247 1915.03 929.247ZM2324.93 572.5C2161.17 572.5 2028.41 705.357 2028.41 869.245 2028.41 1033.13 2161.17 1165.99 2324.93 1165.99 2488.69 1165.99 2621.44 1033.13 2621.44 869.245 2621.44 705.357 2488.69 572.5 2324.93 572.5ZM2021.72 313.227C1942.66 313.227 1878.57 377.37 1878.57 456.494 1878.57 535.618 1942.66 599.76 2021.72 599.76 2100.78 599.76 2164.88 535.618 2164.88 456.494 2164.88 377.37 2100.78 313.227 2021.72 313.227ZM1657 59.0001 1804.41 59.0001 1808.5 99.6242C1827.97 194.807 1912.12 266.407 2012.98 266.407 2113.84 266.407 2198 194.807 2217.46 99.6242L2221.55 59.0001 2366.61 59.0001 2353.47 69.8514C2305.92 117.436 2276.51 183.173 2276.51 255.785 2276.51 401.009 2394.15 518.735 2539.26 518.735 2684.37 518.735 2802.01 401.009 2802.01 255.785 2802.01 183.173 2772.6 117.436 2725.05 69.8514L2711.91 59.0001 2951 59.0001 2951 452.57C2807.89 452.57 2691.88 568.673 2691.88 711.893 2691.88 855.113 2807.89 971.216 2951 971.216L2951 1354 2711.16 1354 2686.17 1333.36C2644.23 1305.01 2593.68 1288.46 2539.26 1288.46 2484.84 1288.46 2434.29 1305.01 2392.36 1333.36L2367.36 1354 2222.01 1354C2222.01 1238.64 2128.56 1145.12 2013.29 1145.12 1898.02 1145.12 1804.58 1238.64 1804.58 1354L1657 1354 1657 971.175 1682.69 969.877C1813.35 956.597 1915.32 846.162 1915.32 711.893 1915.32 577.624 1813.35 467.189 1682.69 453.909L1657 452.611Z" fill="#FF5E1D" fill-rule="evenodd"/></g></svg>