<svg width="793" height="793" xmlns="http://www.w3.org/2000/svg" xmlns:xlink="http://www.w3.org/1999/xlink" xml:space="preserve" overflow="hidden"><defs><clipPath id="clip0"><rect x="1201" y="596" width="793" height="793"/></clipPath></defs><g clip-path="url(#clip0)" transform="translate(-1201 -596)"><path d="M1201 821.695C1201 697.047 1302.05 596 1426.7 596L1768.3 596C1892.95 596 1994 697.047 1994 821.695L1994 1163.3C1994 1287.95 1892.95 1389 1768.3 1389L1426.7 1389C1302.05 1389 1201 1287.95 1201 1163.3Z" fill="#F63B00" fill-rule="evenodd"/><path d="M1703.37 1062.07C1632.69 1062.07 1575.39 1119.37 1575.39 1190.05 1575.39 1260.73 1632.69 1318.02 1703.37 1318.02 1774.04 1318.02 1831.34 1260.73 1831.34 1190.05 1831.34 1119.37 1774.04 1062.07 1703.37 1062.07ZM1889.03 885.588C1851.86 885.588 1821.73 915.723 1821.73 952.897 1821.73 990.07 1851.86 1020.21 1889.03 1020.21 1926.21 1020.21 1956.34 990.07 1956.34 952.897 1956.34 915.723 1926.21 885.588 1889.03 885.588ZM1410.46 885.588C1326.14 885.588 1257.78 953.942 1257.78 1038.26 1257.78 1122.58 1326.14 1190.94 1410.46 1190.94 1494.78 1190.94 1563.13 1122.58 1563.13 1038.26 1563.13 953.942 1494.78 885.588 1410.46 885.588ZM1679.59 815.304C1624.93 815.304 1580.62 859.615 1580.62 914.276 1580.62 968.936 1624.93 1013.25 1679.59 1013.25 1734.25 1013.25 1778.56 968.936 1778.56 914.276 1778.56 859.615 1734.25 815.304 1679.59 815.304ZM1866.94 677.073C1817.56 677.073 1777.54 717.1 1777.54 766.477 1777.54 815.853 1817.56 855.88 1866.94 855.88 1916.32 855.88 1956.34 815.853 1956.34 766.477 1956.34 717.1 1916.32 677.073 1866.94 677.073ZM1344.43 640.759C1300.38 640.759 1264.66 676.476 1264.66 720.535 1264.66 764.594 1300.38 800.31 1344.43 800.31 1388.49 800.31 1424.21 764.594 1424.21 720.535 1424.21 676.476 1388.49 640.759 1344.43 640.759ZM1426.69 596 1459.85 596 1454.63 605.616C1447.12 623.377 1442.97 642.904 1442.97 663.402 1442.97 745.392 1509.43 811.859 1591.42 811.859 1673.41 811.859 1739.88 745.392 1739.88 663.402 1739.88 642.904 1735.72 623.377 1728.21 605.616L1722.99 596 1768.31 596 1813.79 600.585C1916.64 621.63 1994 712.628 1994 821.695L1994 1027.52 1988.84 1028.04C1919.27 1042.28 1866.94 1103.83 1866.94 1177.61 1866.94 1223.72 1887.38 1265.06 1919.7 1293.06L1940.19 1308 1927.9 1322.9 1919.54 1329.79 1894.2 1319.82C1882 1316.68 1869.22 1315.01 1856.04 1315.01 1803.34 1315.01 1756.88 1341.71 1729.44 1382.32L1725.82 1389 1525.74 1389 1530.86 1379.57C1535.69 1368.15 1538.36 1355.61 1538.36 1342.44 1538.36 1289.75 1495.65 1247.04 1442.97 1247.04 1390.28 1247.04 1347.57 1289.75 1347.57 1342.44 1347.57 1349.02 1348.24 1355.45 1349.51 1361.66L1353.95 1375.95 1338.84 1371.26C1325.34 1365.55 1312.51 1358.57 1300.51 1350.45L1290.18 1341.93 1291.39 1339.42C1294.95 1327.96 1296.87 1315.78 1296.87 1303.15 1296.87 1252.63 1266.15 1209.28 1222.38 1190.76L1203.17 1184.8 1201 1163.3 1201 962.68 1203.69 962.409C1248.79 953.18 1282.72 913.276 1282.72 865.448 1282.72 823.599 1256.74 787.816 1220.03 773.342L1207.62 769.655 1218.74 733.844C1247.29 666.34 1307.75 615.617 1381.21 600.585Z" fill="#FF5E1D" fill-rule="evenodd"/></g></svg>