<svg width="305" height="305" xmlns="http://www.w3.org/2000/svg" xmlns:xlink="http://www.w3.org/1999/xlink" xml:space="preserve" overflow="hidden"><defs><clipPath id="clip0"><rect x="1321" y="223" width="305" height="305"/></clipPath></defs><g clip-path="url(#clip0)" transform="translate(-1321 -223)"><path d="M1335 375.5C1335 299.008 1397.01 237 1473.5 237 1549.99 237 1612 299.008 1612 375.5 1612 451.991 1549.99 514 1473.5 514 1397.01 514 1335 451.991 1335 375.5Z" stroke="#000000" stroke-width="27.5" stroke-miterlimit="8" fill="#F2F2F2" fill-rule="evenodd"/><path d="M1421 374.5C1421 345.505 1444.51 322 1473.5 322 1502.49 322 1526 345.505 1526 374.5 1526 403.495 1502.49 427 1473.5 427 1444.51 427 1421 403.495 1421 374.5Z" stroke="#000000" stroke-width="27.5" stroke-miterlimit="8" fill="#1DFF83" fill-rule="evenodd"/></g></svg>