<svg width="1101" height="1101" xmlns="http://www.w3.org/2000/svg" xmlns:xlink="http://www.w3.org/1999/xlink" xml:space="preserve" overflow="hidden"><defs><clipPath id="clip0"><rect x="1945" y="884" width="1101" height="1101"/></clipPath></defs><g clip-path="url(#clip0)" transform="translate(-1945 -884)"><rect x="2024.85" y="963.855" width="941.29" height="941.29" fill="#FF4343"/><path d="M3046 1985 1945 1985 2024.85 1905.15 2966.15 1905.15Z" fill="#FF6868" fill-rule="evenodd"/><path d="M3046 884 2966.15 963.855 2024.85 963.855 1945 884Z" fill="#CD3636" fill-rule="evenodd"/><path d="M3046 1985 2966.15 1905.15 2966.15 963.855 3046 884Z" fill="#FF8E8E" fill-rule="evenodd"/><path d="M1945 1985 1945 884 2024.85 963.855 2024.85 1905.15Z" fill="#992828" fill-rule="evenodd"/><path d="M2072 1179C2072 1101.13 2135.13 1038 2213 1038 2290.87 1038 2354 1101.13 2354 1179 2354 1256.87 2290.87 1320 2213 1320 2135.13 1320 2072 1256.87 2072 1179Z" fill="#EE0000" fill-rule="evenodd"/><path d="M2419 1118C2419 1065.53 2461.76 1023 2514.5 1023 2567.24 1023 2610 1065.53 2610 1118 2610 1170.47 2567.24 1213 2514.5 1213 2461.76 1213 2419 1170.47 2419 1118Z" fill="#EE0000" fill-rule="evenodd"/><path d="M2321 1385C2321 1325.91 2369.13 1278 2428.5 1278 2487.87 1278 2536 1325.91 2536 1385 2536 1444.09 2487.87 1492 2428.5 1492 2369.13 1492 2321 1444.09 2321 1385Z" fill="#EE0000" fill-rule="evenodd"/><path d="M2574 1393.5C2574 1324.19 2630.41 1268 2700 1268 2769.59 1268 2826 1324.19 2826 1393.5 2826 1462.81 2769.59 1519 2700 1519 2630.41 1519 2574 1462.81 2574 1393.5Z" fill="#EE0000" fill-rule="evenodd"/><path d="M2210 1625C2210 1570.88 2254.1 1527 2308.5 1527 2362.9 1527 2407 1570.88 2407 1625 2407 1679.12 2362.9 1723 2308.5 1723 2254.1 1723 2210 1679.12 2210 1625Z" fill="#EE0000" fill-rule="evenodd"/><path d="M2386 1788C2386 1742.71 2422.71 1706 2468 1706 2513.29 1706 2550 1742.71 2550 1788 2550 1833.29 2513.29 1870 2468 1870 2422.71 1870 2386 1833.29 2386 1788Z" fill="#EE0000" fill-rule="evenodd"/><path d="M2675 1143.5C2675 1081.92 2724.7 1032 2786 1032 2847.3 1032 2897 1081.92 2897 1143.5 2897 1205.08 2847.3 1255 2786 1255 2724.7 1255 2675 1205.08 2675 1143.5Z" fill="#EE0000" fill-rule="evenodd"/><path d="M2091 1444C2091 1402.58 2124.58 1369 2166 1369 2207.42 1369 2241 1402.58 2241 1444 2241 1485.42 2207.42 1519 2166 1519 2124.58 1519 2091 1485.42 2091 1444Z" fill="#EE0000" fill-rule="evenodd"/><path d="M2087 1788C2087 1751.55 2116.55 1722 2153 1722 2189.45 1722 2219 1751.55 2219 1788 2219 1824.45 2189.45 1854 2153 1854 2116.55 1854 2087 1824.45 2087 1788Z" fill="#EE0000" fill-rule="evenodd"/><path d="M2458 1590C2458 1545.27 2494.49 1509 2539.5 1509 2584.51 1509 2621 1545.27 2621 1590 2621 1634.74 2584.51 1671 2539.5 1671 2494.49 1671 2458 1634.74 2458 1590Z" fill="#EE0000" fill-rule="evenodd"/><path d="M2642 1722C2642 1657.93 2693.94 1606 2758 1606 2822.06 1606 2874 1657.93 2874 1722 2874 1786.07 2822.06 1838 2758 1838 2693.94 1838 2642 1786.07 2642 1722Z" fill="#EE0000" fill-rule="evenodd"/></g></svg>