<svg width="2021" height="2020" xmlns="http://www.w3.org/2000/svg" xmlns:xlink="http://www.w3.org/1999/xlink" xml:space="preserve" overflow="hidden"><defs><clipPath id="clip0"><rect x="1189" y="229" width="2021" height="2020"/></clipPath></defs><g clip-path="url(#clip0)" transform="translate(-1189 -229)"><path d="M1515.44 1237.5C1326.41 1048.46 1326.41 741.977 1515.44 552.941 1704.48 363.906 2010.96 363.906 2200 552.941 2389.04 741.977 2389.04 1048.46 2200 1237.5 2010.96 1426.54 1704.48 1426.54 1515.44 1237.5Z" stroke="#000000" stroke-width="83.6458" stroke-miterlimit="8" fill="#FFFFFF" fill-rule="evenodd"/><path d="M2200 1922.06C2010.96 1733.02 2010.96 1426.54 2200 1237.5 2389.04 1048.46 2695.52 1048.46 2884.56 1237.5 3073.59 1426.54 3073.59 1733.02 2884.56 1922.06 2695.52 2111.09 2389.04 2111.09 2200 1922.06Z" stroke="#000000" stroke-width="83.6458" stroke-miterlimit="8" fill="#FFFFFF" fill-rule="evenodd"/><path d="M1515.44 1922.06C1389.76 1796.38 1389.76 1592.61 1515.44 1466.93 1641.12 1341.25 1844.89 1341.25 1970.57 1466.93 2096.25 1592.61 2096.25 1796.38 1970.57 1922.06 1844.89 2047.74 1641.12 2047.74 1515.44 1922.06Z" stroke="#000000" stroke-width="83.6458" stroke-miterlimit="8" fill="#FFFFFF" fill-rule="evenodd"/><path d="M2429.43 1008.07C2303.75 882.388 2303.75 678.621 2429.43 552.941 2555.11 427.261 2758.88 427.261 2884.56 552.941 3010.24 678.621 3010.24 882.388 2884.56 1008.07 2758.88 1133.75 2555.11 1133.75 2429.43 1008.07Z" stroke="#000000" stroke-width="83.6458" stroke-miterlimit="8" fill="#FFFFFF" fill-rule="evenodd"/><path d="M1287.33 1467.4C1224.21 1404.28 1224.21 1301.94 1287.33 1238.82 1350.45 1175.7 1452.79 1175.7 1515.91 1238.82 1579.03 1301.94 1579.03 1404.28 1515.91 1467.4 1452.79 1530.52 1350.45 1530.52 1287.33 1467.4Z" stroke="#000000" stroke-width="83.6458" stroke-miterlimit="8" fill="#FFFFFF" fill-rule="evenodd"/><path d="M2199.42 553.525C2136.3 490.405 2136.3 388.069 2199.42 324.949 2262.54 261.83 2364.87 261.83 2427.99 324.949 2491.11 388.069 2491.11 490.405 2427.99 553.525 2364.87 616.644 2262.54 616.644 2199.42 553.525Z" stroke="#000000" stroke-width="83.6458" stroke-miterlimit="8" fill="#FFFFFF" fill-rule="evenodd"/><path d="M1972.79 2152.85C1909.67 2089.73 1909.67 1987.4 1972.79 1924.28 2035.9 1861.16 2138.24 1861.16 2201.36 1924.28 2264.48 1987.4 2264.48 2089.73 2201.36 2152.85 2138.24 2215.97 2035.9 2215.97 1972.79 2152.85Z" stroke="#000000" stroke-width="83.6458" stroke-miterlimit="8" fill="#FFFFFF" fill-rule="evenodd"/><path d="M2884.87 1238.98C2821.75 1175.86 2821.75 1073.52 2884.87 1010.4 2947.99 947.283 3050.33 947.283 3113.45 1010.4 3176.56 1073.52 3176.56 1175.86 3113.45 1238.98 3050.33 1302.1 2947.99 1302.1 2884.87 1238.98Z" stroke="#000000" stroke-width="83.6458" stroke-miterlimit="8" fill="#FFFFFF" fill-rule="evenodd"/><path d="M1266.48 1176.43C1232.04 1141.99 1232.04 1086.15 1266.48 1051.71 1300.92 1017.27 1356.76 1017.27 1391.21 1051.71 1425.65 1086.15 1425.65 1141.99 1391.21 1176.43 1356.76 1210.88 1300.92 1210.88 1266.48 1176.43Z" stroke="#000000" stroke-width="83.6458" stroke-miterlimit="8" fill="#FFFFFF" fill-rule="evenodd"/><path d="M2011.18 428.461C1976.74 394.02 1976.74 338.18 2011.18 303.739 2045.62 269.297 2101.46 269.297 2135.91 303.739 2170.35 338.18 2170.35 394.02 2135.91 428.461 2101.46 462.903 2045.62 462.903 2011.18 428.461Z" stroke="#000000" stroke-width="83.6458" stroke-miterlimit="8" fill="#FFFFFF" fill-rule="evenodd"/><path d="M2261.06 2171.02C2226.62 2136.57 2226.62 2080.73 2261.06 2046.29 2295.51 2011.85 2351.35 2011.85 2385.79 2046.29 2420.23 2080.73 2420.23 2136.57 2385.79 2171.02 2351.35 2205.46 2295.51 2205.46 2261.06 2171.02Z" stroke="#000000" stroke-width="83.6458" stroke-miterlimit="8" fill="#FFFFFF" fill-rule="evenodd"/><path d="M3007.4 1424.68C2972.96 1390.24 2972.96 1334.4 3007.4 1299.96 3041.84 1265.52 3097.68 1265.52 3132.12 1299.96 3166.57 1334.4 3166.57 1390.24 3132.12 1424.68 3097.68 1459.12 3041.84 1459.12 3007.4 1424.68Z" stroke="#000000" stroke-width="83.6458" stroke-miterlimit="8" fill="#FFFFFF" fill-rule="evenodd"/><path d="M1807.45 2115.87C1780.34 2088.75 1780.34 2044.79 1807.45 2017.67 1834.57 1990.55 1878.54 1990.55 1905.65 2017.67 1932.77 2044.79 1932.77 2088.75 1905.65 2115.87 1878.54 2142.99 1834.57 2142.99 1807.45 2115.87Z" stroke="#000000" stroke-width="83.6458" stroke-miterlimit="8" fill="#FFFFFF" fill-rule="evenodd"/><path d="M2980.17 943.152C2953.05 916.035 2953.05 872.07 2980.17 844.953 3007.29 817.836 3051.25 817.836 3078.37 844.953 3105.49 872.07 3105.49 916.035 3078.37 943.152 3051.25 970.269 3007.29 970.269 2980.17 943.152Z" stroke="#000000" stroke-width="83.6458" stroke-miterlimit="8" fill="#FFFFFF" fill-rule="evenodd"/><path d="M1321.07 1629.49C1293.96 1602.38 1293.96 1558.41 1321.07 1531.29 1348.19 1504.18 1392.16 1504.18 1419.27 1531.29 1446.39 1558.41 1446.39 1602.38 1419.27 1629.49 1392.16 1656.61 1348.19 1656.61 1321.07 1629.49Z" stroke="#000000" stroke-width="83.6458" stroke-miterlimit="8" fill="#FFFFFF" fill-rule="evenodd"/><path d="M2493.79 456.774C2466.68 429.657 2466.68 385.692 2493.79 358.575 2520.91 331.458 2564.88 331.458 2591.99 358.575 2619.11 385.692 2619.11 429.657 2591.99 456.774 2564.88 483.891 2520.91 483.891 2493.79 456.774Z" stroke="#000000" stroke-width="83.6458" stroke-miterlimit="8" fill="#FFFFFF" fill-rule="evenodd"/><path d="M1970.57 1466.93C1945.13 1441.49 1945.13 1400.25 1970.57 1374.81 1996.01 1349.37 2037.25 1349.37 2062.69 1374.81 2088.13 1400.25 2088.13 1441.49 2062.69 1466.93 2037.25 1492.37 1996.01 1492.37 1970.57 1466.93Z" stroke="#000000" stroke-width="83.6458" stroke-miterlimit="8" fill="#FFFFFF" fill-rule="evenodd"/><path d="M2336.4 1101.1C2310.96 1075.66 2310.96 1034.42 2336.4 1008.98 2361.84 983.54 2403.08 983.54 2428.52 1008.98 2453.96 1034.42 2453.96 1075.66 2428.52 1101.1 2403.08 1126.54 2361.84 1126.54 2336.4 1101.1Z" stroke="#000000" stroke-width="83.6458" stroke-miterlimit="8" fill="#FFFFFF" fill-rule="evenodd"/><path d="M1287.78 1008.52C1266.82 987.558 1266.82 953.572 1287.78 932.611 1308.74 911.649 1342.72 911.649 1363.69 932.611 1384.65 953.572 1384.65 987.558 1363.69 1008.52 1342.72 1029.48 1308.74 1029.48 1287.78 1008.52Z" stroke="#000000" stroke-width="83.6458" stroke-miterlimit="8" fill="#FFFFFF" fill-rule="evenodd"/><path d="M1893.72 401.606C1872.76 380.644 1872.76 346.658 1893.72 325.697 1914.68 304.735 1948.67 304.735 1969.63 325.697 1990.59 346.658 1990.59 380.644 1969.63 401.606 1948.67 422.568 1914.68 422.568 1893.72 401.606Z" stroke="#000000" stroke-width="83.6458" stroke-miterlimit="8" fill="#FFFFFF" fill-rule="evenodd"/><path d="M2428.98 2149.72C2408.02 2128.76 2408.02 2094.77 2428.98 2073.81 2449.94 2052.85 2483.93 2052.85 2504.89 2073.81 2525.85 2094.77 2525.85 2128.76 2504.89 2149.72 2483.93 2170.68 2449.94 2170.68 2428.98 2149.72Z" stroke="#000000" stroke-width="83.6458" stroke-miterlimit="8" fill="#FFFFFF" fill-rule="evenodd"/><path d="M3036.38 1543.29C3015.42 1522.33 3015.42 1488.35 3036.38 1467.39 3057.34 1446.42 3091.33 1446.42 3112.29 1467.39 3133.25 1488.35 3133.25 1522.33 3112.29 1543.29 3091.33 1564.26 3057.34 1564.26 3036.38 1543.29Z" stroke="#000000" stroke-width="83.6458" stroke-miterlimit="8" fill="#FFFFFF" fill-rule="evenodd"/><path d="M1311.58 907.831C1297.79 894.04 1297.79 871.681 1311.58 857.89 1325.37 844.099 1347.73 844.099 1361.52 857.89 1375.32 871.681 1375.32 894.04 1361.52 907.831 1347.73 921.622 1325.37 921.622 1311.58 907.831Z" stroke="#000000" stroke-width="83.6458" stroke-miterlimit="8" fill="#FFFFFF" fill-rule="evenodd"/><path d="M1819.52 400.863C1805.73 387.072 1805.73 364.712 1819.52 350.921 1833.32 337.13 1855.68 337.13 1869.47 350.921 1883.26 364.712 1883.26 387.072 1869.47 400.863 1855.68 414.654 1833.32 414.654 1819.52 400.863Z" stroke="#000000" stroke-width="83.6458" stroke-miterlimit="8" fill="#FFFFFF" fill-rule="evenodd"/><path d="M2529.63 2124.98C2515.83 2111.19 2515.83 2088.83 2529.63 2075.04 2543.42 2061.25 2565.78 2061.25 2579.57 2075.04 2593.36 2088.83 2593.36 2111.19 2579.57 2124.98 2565.78 2138.77 2543.42 2138.77 2529.63 2124.98Z" stroke="#000000" stroke-width="83.6458" stroke-miterlimit="8" fill="#FFFFFF" fill-rule="evenodd"/><path d="M3036.9 1618.24C3023.11 1604.45 3023.11 1582.09 3036.9 1568.3 3050.69 1554.51 3073.05 1554.51 3086.84 1568.3 3100.63 1582.09 3100.63 1604.45 3086.84 1618.24 3073.05 1632.03 3050.69 1632.03 3036.9 1618.24Z" stroke="#000000" stroke-width="83.6458" stroke-miterlimit="8" fill="#FFFFFF" fill-rule="evenodd"/><path d="M1241.28 1238.56C1228.47 1225.75 1228.47 1204.97 1241.28 1192.16 1254.09 1179.35 1274.86 1179.35 1287.68 1192.16 1300.49 1204.97 1300.49 1225.75 1287.68 1238.56 1274.86 1251.37 1254.09 1251.37 1241.28 1238.56Z" stroke="#000000" stroke-width="83.6458" stroke-miterlimit="8" fill="#FFFFFF" fill-rule="evenodd"/><path d="M2152.51 327.324C2139.7 314.512 2139.7 293.739 2152.51 280.927 2165.32 268.114 2186.1 268.114 2198.91 280.927 2211.72 293.739 2211.72 314.512 2198.91 327.324 2186.1 340.137 2165.32 340.137 2152.51 327.324Z" stroke="#000000" stroke-width="83.6458" stroke-miterlimit="8" fill="#FFFFFF" fill-rule="evenodd"/><path d="M2200.88 2197.12C2188.07 2184.31 2188.07 2163.54 2200.88 2150.73 2213.69 2137.91 2234.46 2137.91 2247.28 2150.73 2260.09 2163.54 2260.09 2184.31 2247.28 2197.12 2234.46 2209.94 2213.69 2209.94 2200.88 2197.12Z" stroke="#000000" stroke-width="83.6458" stroke-miterlimit="8" fill="#FFFFFF" fill-rule="evenodd"/><path d="M3113.11 1282.99C3100.55 1270.44 3100.55 1250.08 3113.11 1237.53 3125.66 1224.97 3146.02 1224.97 3158.57 1237.53 3171.12 1250.08 3171.12 1270.44 3158.57 1282.99 3146.02 1295.54 3125.66 1295.54 3113.11 1282.99Z" stroke="#000000" stroke-width="83.6458" stroke-miterlimit="8" fill="#FFFFFF" fill-rule="evenodd"/><path d="M1575.79 1387.14C1559.52 1370.87 1559.52 1344.5 1575.79 1328.23 1592.06 1311.96 1618.43 1311.96 1634.7 1328.23 1650.96 1344.5 1650.96 1370.87 1634.7 1387.14 1618.43 1403.4 1592.06 1403.4 1575.79 1387.14Z" stroke="#000000" stroke-width="83.6458" stroke-miterlimit="8" fill="#FFFFFF" fill-rule="evenodd"/><path d="M2289.48 672.974C2273.21 656.707 2273.21 630.333 2289.48 614.066 2305.75 597.799 2332.12 597.799 2348.39 614.066 2364.66 630.333 2364.66 656.707 2348.39 672.974 2332.12 689.241 2305.75 689.241 2289.48 672.974Z" stroke="#000000" stroke-width="83.6458" stroke-miterlimit="8" fill="#FFFFFF" fill-rule="evenodd"/><path d="M2050.36 1861.71C2034.1 1845.44 2034.1 1819.07 2050.36 1802.8 2066.63 1786.54 2093 1786.54 2109.27 1802.8 2125.54 1819.07 2125.54 1845.44 2109.27 1861.71 2093 1877.98 2066.63 1877.98 2050.36 1861.71Z" stroke="#000000" stroke-width="83.6458" stroke-miterlimit="8" fill="#FFFFFF" fill-rule="evenodd"/><path d="M2764.05 1147.55C2747.79 1131.28 2747.79 1104.91 2764.05 1088.64 2780.32 1072.37 2806.7 1072.37 2822.96 1088.64 2839.23 1104.91 2839.23 1131.28 2822.96 1147.55 2806.7 1163.81 2780.32 1163.81 2764.05 1147.55Z" stroke="#000000" stroke-width="83.6458" stroke-miterlimit="8" fill="#FFFFFF" fill-rule="evenodd"/></g></svg>